<svg xmlns="http://www.w3.org/2000/svg" width="195.416" height="90.562" viewBox="0 0 146.562 67.921"><path fill="#408EC8" d="M34.723 48.457h2.855v-.691H35.41v-1.621h2.168v-.684H35.41V43.84h2.168v-.688h-2.855Zm10.273-5.305h-.789l-1 1.727-.996-1.727h-.785l1.386 2.41-1.667 2.895h.789l1.273-2.21 1.277 2.21h.79l-1.672-2.895Zm6.027 2.59c-.218.219-.48.328-.785.328h-.625v-2.226h.625c.305 0 .567.11.785.324.22.215.325.48.325.785 0 .309-.106.574-.325.79m-.593-2.59h-1.504v5.304h.687v-1.7h.625c.496 0 .922-.175 1.274-.527a1.74 1.74 0 0 0 .527-1.277c0-.496-.176-.918-.527-1.273a1.846 1.846 0 0 0-1.082-.528m5.277 5.305h2.855v-.691h-2.167v-1.621h2.167v-.684h-2.167V43.84h2.167v-.688h-2.855Zm7.441-2.387v-2.226h.625c.305 0 .567.105.786.324.214.215.324.477.324.785 0 .309-.11.574-.324.79-.22.218-.48.327-.786.327Zm1.899.16a1.74 1.74 0 0 0 .527-1.277c0-.496-.176-.918-.527-1.273a1.846 1.846 0 0 0-1.082-.528H62.46v5.305h.687v-1.7h.625l1.063 1.7h.828l-1.176-1.812c.13-.032.317-.168.559-.415m4.001-2.39h1.234v4.617h.692V43.84h1.234v-.688h-3.16Zm8.246 1.21a1.903 1.903 0 0 1-.504-.323.552.552 0 0 1-.16-.395.54.54 0 0 1 .16-.395.555.555 0 0 1 .398-.16c.149 0 .282.051.391.16.059.06.129.192.203.395l.625-.242c-.094-.293-.207-.504-.347-.633a1.186 1.186 0 0 0-.871-.363 1.2 1.2 0 0 0-.883.363 1.201 1.201 0 0 0-.364.875c0 .344.118.633.352.863.234.235.535.414.914.54.262.109.484.253.664.433a.932.932 0 0 1 .285.687c0 .27-.094.5-.285.688a.93.93 0 0 1-.683.285.932.932 0 0 1-.688-.285c-.164-.164-.266-.438-.309-.832l-.668.242c.07.457.235.813.493 1.07.32.329.71.489 1.171.489.454 0 .844-.16 1.168-.485a1.61 1.61 0 0 0 .485-1.172c0-.457-.164-.847-.488-1.167a2.62 2.62 0 0 0-1.059-.637m5.242 1.73h2.211v-.683h-2.21Zm8.738-2.991c.512 0 1.004.21 1.477.632l.516-.469c-.63-.574-1.293-.86-1.993-.86-.75 0-1.386.266-1.914.798a2.604 2.604 0 0 0-.793 1.914c0 .75.262 1.386.793 1.914a2.592 2.592 0 0 0 1.914.793c.7 0 1.364-.285 1.993-.86l-.516-.46c-.473.421-.965.632-1.477.632a1.95 1.95 0 0 1-1.421-.59 1.95 1.95 0 0 1-.594-1.43c0-.554.199-1.03.594-1.425a1.95 1.95 0 0 1 1.421-.59m9.864 3.441a1.95 1.95 0 0 1-1.43.594 1.946 1.946 0 0 1-1.426-.594 1.943 1.943 0 0 1-.594-1.433c0-.559.196-1.035.59-1.43a1.95 1.95 0 0 1 1.43-.59 1.95 1.95 0 0 1 1.43.59c.394.395.593.871.593 1.43 0 .558-.199 1.039-.593 1.433m-1.43-4.148c-.75 0-1.387.27-1.918.797a2.617 2.617 0 0 0-.797 1.918c0 .75.266 1.39.797 1.922a2.622 2.622 0 0 0 1.918.793c.75 0 1.39-.266 1.918-.793a2.62 2.62 0 0 0 .797-1.922c0-.746-.266-1.387-.797-1.918a2.62 2.62 0 0 0-1.918-.797m9.43 3.856-2.188-3.782h-.625v5.301h.684v-3.832l2.219 3.832h.597v-5.3h-.687Zm6.105-1.888a1.903 1.903 0 0 1-.504-.323.552.552 0 0 1-.16-.395.54.54 0 0 1 .16-.395.555.555 0 0 1 .399-.16c.148 0 .281.051.39.16.059.06.13.192.203.395l.625-.242c-.093-.293-.207-.504-.347-.633a1.186 1.186 0 0 0-.871-.363 1.2 1.2 0 0 0-.883.363 1.201 1.201 0 0 0-.363.875c0 .344.117.633.351.863.235.235.535.414.91.54.266.109.489.253.668.433a.932.932 0 0 1 .285.687c0 .27-.093.5-.285.688a.923.923 0 0 1-.683.285.932.932 0 0 1-.688-.285c-.164-.164-.265-.438-.308-.832l-.668.242c.07.457.234.813.492 1.07.32.329.71.489 1.172.489.453 0 .843-.16 1.168-.485a1.61 1.61 0 0 0 .484-1.172c0-.457-.164-.847-.488-1.167-.29-.29-.64-.5-1.059-.637m25.16.633a2.62 2.62 0 0 0-1.054-.637 1.704 1.704 0 0 1-.504-.328.534.534 0 0 1-.164-.395c0-.152.054-.285.164-.39a.524.524 0 0 1 .394-.16.54.54 0 0 1 .39.156c.063.062.13.195.208.398l.621-.246c-.094-.289-.207-.5-.344-.633a1.213 1.213 0 0 0-.875-.36c-.343 0-.636.122-.879.364a1.192 1.192 0 0 0-.363.871c0 .348.113.637.348.867.234.235.539.414.914.54a2.1 2.1 0 0 1 .668.433.944.944 0 0 1 .281.688c0 .27-.094.5-.281.687a.938.938 0 0 1-.688.285.932.932 0 0 1-.687-.285c-.164-.164-.266-.441-.309-.832l-.664.242c.067.457.23.813.488 1.07a1.6 1.6 0 0 0 1.172.489c.453 0 .844-.16 1.168-.485.324-.324.485-.714.485-1.171 0-.457-.16-.848-.489-1.168m-19.961 2.773h2.856v-.691h-2.172v-1.621h2.172v-.684h-2.172V43.84h2.172v-.688h-2.856Zm6.821 0h.683v-5.305h-.683Zm5.422-5.305h-.688v5.305h2.582v-.691h-1.894Zm7.926-4.707H34.722v.692h105.886Zm0 0"/><path fill="#085491" d="m40.773 28.7-4.437-7.665h-1.613v13.676h1.77v-9.883l4.28 7.387 4.266-7.387v9.883h1.77V21.035H45.19Zm10.77 6.01h7.367v-1.78h-5.597v-4.176h5.597V26.98h-5.597v-4.175h5.597V21.03h-7.367Zm10.613-11.905h3.188v11.902h1.777V22.805h3.188v-1.77h-8.153Zm14.426 5.297 1.16-3.204 1.172 3.204Zm.684-7.07L72.289 34.71h1.89l1.755-4.84h3.625l1.757 4.84H83.2l-4.976-13.68Zm16.648 9.761-5.64-9.758h-1.618v13.676h1.77v-9.883l5.719 9.883h1.546V21.035h-1.777Zm16.566.754c-1.015 1.02-2.246 1.531-3.687 1.531-1.438 0-2.664-.512-3.684-1.531-1.02-1.02-1.53-2.25-1.53-3.692 0-1.44.51-2.671 1.526-3.69 1.016-1.017 2.247-1.524 3.688-1.524 1.441 0 2.672.507 3.687 1.523 1.02 1.02 1.528 2.25 1.528 3.691 0 1.442-.508 2.672-1.528 3.692m-3.687-10.692c-1.934 0-3.582.684-4.95 2.051-1.366 1.367-2.05 3.016-2.05 4.95 0 1.93.684 3.581 2.05 4.949 1.368 1.367 3.016 2.05 4.95 2.05 1.934 0 3.582-.683 4.95-2.05 1.366-1.367 2.05-3.02 2.05-4.95 0-1.933-.684-3.582-2.05-4.949-1.368-1.367-3.016-2.05-4.95-2.05m15.317 9.98-3.567-9.8h-1.879l4.965 13.675h.957l4.984-13.676h-1.89Zm11.886-2.734 1.16-3.204 1.172 3.204Zm1.64-7.07h-.956l-4.977 13.679h1.89l1.755-4.84h3.62l1.762 4.84h1.883Zm0 0"/><path fill="#408EC8" d="M16.066 16.277v10.95l1.957-1.817 3.165-2.93-2.301-2.785Zm0 0"/><path fill="#79B3E1" d="m16.066 16.277 2.82 3.418 2.302 2.785-.778-12.906-4.344.89Zm0 0"/><path fill="#A7CFE9" d="m11.957 10.855-5.996 4.848.57.313L11.957 19l2.918 1.605.594.329V8.016Zm0 0"/><path fill="#408EC8" d="M11.957 23.484 5.41 28.242l-.64.465.543.582 6.644 7.078.832.887.594.633v-2.903l1.492 1.168.594.461v-15.68l-.594.43Zm0 0"/><path fill="#053451" d="m12.79 58.29-.833.554-9.695 6.426-.899.593h12.02v-7.965Zm0 0"/><path fill="#8DBFE4" d="m16.066 10.465 4.344-.89-8.453-8.348v8.867l4.11-3.324ZM22.363 42l-1.3-1.016-4.997-3.906-.597-.465-.59-.46-1.496-1.169v10.91l.597-.175.106-.032.793-.234.59-.172.597-.176 6.372-1.875.39-.113.7-.207Zm0 0"/><path fill="#136FB7" d="m22.254 40.18-1.067-17.7-3.164 2.93-1.957 1.817v7.457l.497.441Zm-8.871-2.293-.594-.633-.832-.887-6.645-7.078-.542-.582-1.805 19.719.633-.422 8.359-5.559.832-.554.594-.391ZM23.547 51.8l-.617-.359-6.864-3.988-.597-.348-.59-.343-.899-.52-.382-.222-.215-.125v13.87l.597-.421.899-.633.59-.418.597-.422 5.86-4.129 1.097-.773.575-.407.57-.402Zm0 0"/><path fill="#084268" d="m22.254 40.18-.676.453.738.578Zm-8.871 14.984-.594-.383-.832-.539-8.43-5.453-.562-.363-1.598 17.437.895-.593 9.695-6.426.832-.555.594-.39Zm10.59 10.106-.215-.11-7.403-3.851-.289-.149-.597-.312-.594-.309-.895-.465-.597-.308v6.097h11.73Zm0 0"/><path fill="#79B3E1" d="m15.469 20.934-.594-.329L11.957 19l-5.426-2.984-.57-.313L4.77 28.707l.64-.465 6.547-4.758 2.918-2.12Zm8.058 21.976-.699.207-.39.113-6.372 1.875-.597.176-.594.172-.79.234-.108.032-.594.176.215.125.379.222.898.52.594.347.597.344 6.864 3.988.617.36.621.36Zm0 0"/><path fill="#085491" d="m22.254 40.18-5.692-5.055-.496-.441v1.64l5.512 4.309Zm-8.871 7.89v-6.574l-.594.395-.832.554-8.36 5.559-.632.422.562.363 8.43 5.453.832.54.594.382Zm10.215 4.493-.575.406-1.097.773-5.86 4.133-.593.418-.598.418-.895.633-.597.422.597.308.895.465.598.309.593.308.29.153 7.402 3.851.215.11 1.14.593-.945-13.703Zm0 0"/></svg>