<?xml version="1.0" encoding="UTF-8"?>
<svg xmlns="http://www.w3.org/2000/svg" xmlns:xlink="http://www.w3.org/1999/xlink" width="143.403pt" height="67.9212pt" viewBox="0 0 143.403 67.9212">
<path fill-rule="nonzero" fill="rgb(0.392151%, 0.392151%, 0.392151%)" fill-opacity="1" d="M 34.722656 48.457031 L 37.578125 48.457031 L 37.578125 47.765625 L 35.410156 47.765625 L 35.410156 46.144531 L 37.578125 46.144531 L 37.578125 45.460938 L 35.410156 45.460938 L 35.410156 43.839844 L 37.578125 43.839844 L 37.578125 43.152344 L 34.722656 43.152344 Z M 34.722656 48.457031 "/>
<path fill-rule="nonzero" fill="rgb(0.392151%, 0.392151%, 0.392151%)" fill-opacity="1" d="M 44.996094 43.152344 L 44.207031 43.152344 L 43.207031 44.878906 L 42.210938 43.152344 L 41.425781 43.152344 L 42.8125 45.5625 L 41.144531 48.457031 L 41.933594 48.457031 L 43.207031 46.246094 L 44.484375 48.457031 L 45.273438 48.457031 L 43.601562 45.5625 Z M 44.996094 43.152344 "/>
<path fill-rule="nonzero" fill="rgb(0.392151%, 0.392151%, 0.392151%)" fill-opacity="1" d="M 51.023438 45.742188 C 50.804688 45.960938 50.542969 46.070312 50.238281 46.070312 L 49.613281 46.070312 L 49.613281 43.84375 L 50.238281 43.84375 C 50.542969 43.84375 50.804688 43.953125 51.023438 44.167969 C 51.242188 44.382812 51.347656 44.648438 51.347656 44.953125 C 51.347656 45.261719 51.242188 45.527344 51.023438 45.742188 M 50.429688 43.152344 L 48.925781 43.152344 L 48.925781 48.457031 L 49.613281 48.457031 L 49.613281 46.757812 L 50.238281 46.757812 C 50.734375 46.757812 51.160156 46.582031 51.511719 46.230469 C 51.863281 45.878906 52.039062 45.453125 52.039062 44.953125 C 52.039062 44.457031 51.863281 44.035156 51.511719 43.679688 C 51.21875 43.386719 50.855469 43.210938 50.429688 43.152344 "/>
<path fill-rule="nonzero" fill="rgb(0.392151%, 0.392151%, 0.392151%)" fill-opacity="1" d="M 55.707031 48.457031 L 58.5625 48.457031 L 58.5625 47.765625 L 56.394531 47.765625 L 56.394531 46.144531 L 58.5625 46.144531 L 58.5625 45.460938 L 56.394531 45.460938 L 56.394531 43.839844 L 58.5625 43.839844 L 58.5625 43.152344 L 55.707031 43.152344 Z M 55.707031 48.457031 "/>
<path fill-rule="nonzero" fill="rgb(0.392151%, 0.392151%, 0.392151%)" fill-opacity="1" d="M 63.148438 46.070312 L 63.148438 43.84375 L 63.773438 43.84375 C 64.078125 43.84375 64.339844 43.949219 64.558594 44.167969 C 64.773438 44.382812 64.882812 44.644531 64.882812 44.953125 C 64.882812 45.261719 64.773438 45.527344 64.558594 45.742188 C 64.339844 45.960938 64.078125 46.070312 63.773438 46.070312 Z M 65.046875 46.230469 C 65.398438 45.878906 65.574219 45.453125 65.574219 44.953125 C 65.574219 44.457031 65.398438 44.035156 65.046875 43.679688 C 64.753906 43.386719 64.390625 43.210938 63.964844 43.152344 L 62.460938 43.152344 L 62.460938 48.457031 L 63.148438 48.457031 L 63.148438 46.757812 L 63.773438 46.757812 L 64.835938 48.457031 L 65.664062 48.457031 L 64.488281 46.644531 C 64.617188 46.613281 64.804688 46.476562 65.046875 46.230469 "/>
<path fill-rule="nonzero" fill="rgb(0.392151%, 0.392151%, 0.392151%)" fill-opacity="1" d="M 69.046875 43.839844 L 70.28125 43.839844 L 70.28125 48.457031 L 70.972656 48.457031 L 70.972656 43.839844 L 72.207031 43.839844 L 72.207031 43.152344 L 69.046875 43.152344 Z M 69.046875 43.839844 "/>
<path fill-rule="nonzero" fill="rgb(0.392151%, 0.392151%, 0.392151%)" fill-opacity="1" d="M 77.292969 45.050781 C 77.082031 44.953125 76.914062 44.84375 76.789062 44.726562 C 76.683594 44.617188 76.628906 44.484375 76.628906 44.332031 C 76.628906 44.175781 76.683594 44.042969 76.789062 43.9375 C 76.898438 43.832031 77.03125 43.777344 77.1875 43.777344 C 77.335938 43.777344 77.46875 43.828125 77.578125 43.9375 C 77.636719 43.996094 77.707031 44.128906 77.78125 44.332031 L 78.40625 44.089844 C 78.3125 43.796875 78.199219 43.585938 78.058594 43.457031 C 77.816406 43.214844 77.527344 43.09375 77.1875 43.09375 C 76.839844 43.09375 76.546875 43.214844 76.304688 43.457031 C 76.0625 43.703125 75.941406 43.992188 75.941406 44.332031 C 75.941406 44.675781 76.058594 44.964844 76.292969 45.195312 C 76.527344 45.429688 76.828125 45.609375 77.207031 45.734375 C 77.46875 45.84375 77.691406 45.988281 77.871094 46.167969 C 78.0625 46.359375 78.15625 46.585938 78.15625 46.855469 C 78.15625 47.125 78.0625 47.355469 77.871094 47.542969 C 77.679688 47.734375 77.453125 47.828125 77.1875 47.828125 C 76.917969 47.828125 76.691406 47.734375 76.5 47.542969 C 76.335938 47.378906 76.234375 47.105469 76.191406 46.710938 L 75.523438 46.953125 C 75.59375 47.410156 75.757812 47.765625 76.015625 48.023438 C 76.335938 48.351562 76.726562 48.511719 77.1875 48.511719 C 77.640625 48.511719 78.03125 48.351562 78.355469 48.027344 C 78.675781 47.703125 78.839844 47.3125 78.839844 46.855469 C 78.839844 46.398438 78.675781 46.007812 78.351562 45.6875 C 78.0625 45.398438 77.710938 45.1875 77.292969 45.050781 "/>
<path fill-rule="nonzero" fill="rgb(0.392151%, 0.392151%, 0.392151%)" fill-opacity="1" d="M 82.535156 46.78125 L 84.746094 46.78125 L 84.746094 46.097656 L 82.535156 46.097656 Z M 82.535156 46.78125 "/>
<path fill-rule="nonzero" fill="rgb(0.392151%, 0.392151%, 0.392151%)" fill-opacity="1" d="M 91.273438 43.789062 C 91.785156 43.789062 92.277344 44 92.75 44.421875 L 93.265625 43.953125 C 92.636719 43.378906 91.972656 43.09375 91.273438 43.09375 C 90.523438 43.09375 89.886719 43.359375 89.359375 43.890625 C 88.828125 44.421875 88.566406 45.058594 88.566406 45.804688 C 88.566406 46.554688 88.828125 47.191406 89.359375 47.71875 C 89.886719 48.25 90.523438 48.511719 91.273438 48.511719 C 91.972656 48.511719 92.636719 48.226562 93.265625 47.652344 L 92.75 47.191406 C 92.277344 47.613281 91.785156 47.824219 91.273438 47.824219 C 90.71875 47.824219 90.246094 47.625 89.851562 47.234375 C 89.457031 46.839844 89.257812 46.363281 89.257812 45.804688 C 89.257812 45.25 89.457031 44.773438 89.851562 44.378906 C 90.246094 43.988281 90.71875 43.789062 91.273438 43.789062 "/>
<path fill-rule="nonzero" fill="rgb(0.392151%, 0.392151%, 0.392151%)" fill-opacity="1" d="M 101.136719 47.230469 C 100.742188 47.625 100.265625 47.824219 99.707031 47.824219 C 99.152344 47.824219 98.675781 47.625 98.28125 47.230469 C 97.882812 46.835938 97.6875 46.355469 97.6875 45.796875 C 97.6875 45.238281 97.882812 44.761719 98.277344 44.367188 C 98.671875 43.972656 99.148438 43.777344 99.707031 43.777344 C 100.265625 43.777344 100.742188 43.972656 101.136719 44.367188 C 101.53125 44.761719 101.730469 45.238281 101.730469 45.796875 C 101.730469 46.355469 101.53125 46.835938 101.136719 47.230469 M 99.707031 43.082031 C 98.957031 43.082031 98.320312 43.351562 97.789062 43.878906 C 97.257812 44.410156 96.992188 45.050781 96.992188 45.796875 C 96.992188 46.546875 97.257812 47.1875 97.789062 47.71875 C 98.320312 48.246094 98.957031 48.511719 99.707031 48.511719 C 100.457031 48.511719 101.097656 48.246094 101.625 47.71875 C 102.15625 47.1875 102.421875 46.546875 102.421875 45.796875 C 102.421875 45.050781 102.15625 44.410156 101.625 43.878906 C 101.097656 43.351562 100.457031 43.082031 99.707031 43.082031 "/>
<path fill-rule="nonzero" fill="rgb(0.392151%, 0.392151%, 0.392151%)" fill-opacity="1" d="M 109.136719 46.9375 L 106.949219 43.15625 L 106.324219 43.15625 L 106.324219 48.457031 L 107.007812 48.457031 L 107.007812 44.625 L 109.226562 48.457031 L 109.824219 48.457031 L 109.824219 43.15625 L 109.136719 43.15625 Z M 109.136719 46.9375 "/>
<path fill-rule="nonzero" fill="rgb(0.392151%, 0.392151%, 0.392151%)" fill-opacity="1" d="M 115.242188 45.050781 C 115.03125 44.953125 114.863281 44.84375 114.738281 44.726562 C 114.632812 44.617188 114.578125 44.484375 114.578125 44.332031 C 114.578125 44.175781 114.632812 44.042969 114.738281 43.9375 C 114.847656 43.832031 114.980469 43.777344 115.136719 43.777344 C 115.285156 43.777344 115.417969 43.828125 115.527344 43.9375 C 115.585938 43.996094 115.65625 44.128906 115.730469 44.332031 L 116.355469 44.089844 C 116.261719 43.796875 116.148438 43.585938 116.007812 43.457031 C 115.765625 43.214844 115.476562 43.09375 115.136719 43.09375 C 114.789062 43.09375 114.496094 43.214844 114.253906 43.457031 C 114.011719 43.703125 113.890625 43.992188 113.890625 44.332031 C 113.890625 44.675781 114.007812 44.964844 114.242188 45.195312 C 114.476562 45.429688 114.777344 45.609375 115.152344 45.734375 C 115.417969 45.84375 115.640625 45.988281 115.820312 46.167969 C 116.011719 46.359375 116.105469 46.585938 116.105469 46.855469 C 116.105469 47.125 116.011719 47.355469 115.820312 47.542969 C 115.632812 47.734375 115.402344 47.828125 115.136719 47.828125 C 114.867188 47.828125 114.640625 47.734375 114.449219 47.542969 C 114.285156 47.378906 114.183594 47.105469 114.140625 46.710938 L 113.472656 46.953125 C 113.542969 47.410156 113.707031 47.765625 113.964844 48.023438 C 114.285156 48.351562 114.675781 48.511719 115.136719 48.511719 C 115.589844 48.511719 115.980469 48.351562 116.304688 48.027344 C 116.625 47.703125 116.789062 47.3125 116.789062 46.855469 C 116.789062 46.398438 116.625 46.007812 116.300781 45.6875 C 116.011719 45.398438 115.660156 45.1875 115.242188 45.050781 "/>
<path fill-rule="nonzero" fill="rgb(0.392151%, 0.392151%, 0.392151%)" fill-opacity="1" d="M 140.402344 45.683594 C 140.113281 45.394531 139.761719 45.183594 139.347656 45.046875 C 139.132812 44.949219 138.964844 44.839844 138.84375 44.71875 C 138.734375 44.609375 138.679688 44.480469 138.679688 44.324219 C 138.679688 44.171875 138.734375 44.039062 138.84375 43.933594 C 138.949219 43.824219 139.082031 43.773438 139.238281 43.773438 C 139.390625 43.773438 139.519531 43.824219 139.628906 43.929688 C 139.691406 43.992188 139.757812 44.125 139.835938 44.328125 L 140.457031 44.082031 C 140.363281 43.792969 140.25 43.582031 140.113281 43.449219 C 139.867188 43.210938 139.578125 43.089844 139.238281 43.089844 C 138.894531 43.089844 138.601562 43.210938 138.359375 43.453125 C 138.117188 43.695312 137.996094 43.988281 137.996094 44.324219 C 137.996094 44.671875 138.109375 44.960938 138.34375 45.191406 C 138.578125 45.425781 138.882812 45.605469 139.257812 45.730469 C 139.519531 45.839844 139.742188 45.984375 139.925781 46.164062 C 140.113281 46.355469 140.207031 46.582031 140.207031 46.851562 C 140.207031 47.121094 140.113281 47.351562 139.925781 47.539062 C 139.734375 47.730469 139.503906 47.824219 139.238281 47.824219 C 138.96875 47.824219 138.742188 47.730469 138.550781 47.539062 C 138.386719 47.375 138.285156 47.097656 138.242188 46.707031 L 137.578125 46.949219 C 137.644531 47.40625 137.808594 47.761719 138.066406 48.019531 C 138.390625 48.34375 138.78125 48.507812 139.238281 48.507812 C 139.691406 48.507812 140.082031 48.347656 140.40625 48.023438 C 140.730469 47.699219 140.890625 47.308594 140.890625 46.851562 C 140.890625 46.394531 140.730469 46.003906 140.402344 45.683594 "/>
<path fill-rule="nonzero" fill="rgb(0.392151%, 0.392151%, 0.392151%)" fill-opacity="1" d="M 120.441406 48.457031 L 123.296875 48.457031 L 123.296875 47.765625 L 121.125 47.765625 L 121.125 46.144531 L 123.296875 46.144531 L 123.296875 45.460938 L 121.125 45.460938 L 121.125 43.839844 L 123.296875 43.839844 L 123.296875 43.152344 L 120.441406 43.152344 Z M 120.441406 48.457031 "/>
<path fill-rule="nonzero" fill="rgb(0.392151%, 0.392151%, 0.392151%)" fill-opacity="1" d="M 127.261719 48.457031 L 127.945312 48.457031 L 127.945312 43.152344 L 127.261719 43.152344 Z M 127.261719 48.457031 "/>
<path fill-rule="nonzero" fill="rgb(0.392151%, 0.392151%, 0.392151%)" fill-opacity="1" d="M 132.683594 43.152344 L 131.996094 43.152344 L 131.996094 48.457031 L 134.578125 48.457031 L 134.578125 47.765625 L 132.683594 47.765625 Z M 132.683594 43.152344 "/>
<path fill-rule="nonzero" fill="rgb(0.392151%, 0.392151%, 0.392151%)" fill-opacity="1" d="M 140.609375 38.445312 L 34.722656 38.445312 L 34.722656 39.136719 L 140.609375 39.136719 Z M 140.609375 38.445312 "/>
<path fill-rule="nonzero" fill="rgb(0.392151%, 0.392151%, 0.392151%)" fill-opacity="1" d="M 40.773438 28.699219 L 36.335938 21.035156 L 34.722656 21.035156 L 34.722656 34.710938 L 36.492188 34.710938 L 36.492188 24.828125 L 40.773438 32.214844 L 45.039062 24.828125 L 45.039062 34.710938 L 46.808594 34.710938 L 46.808594 21.035156 L 45.191406 21.035156 Z M 40.773438 28.699219 "/>
<path fill-rule="nonzero" fill="rgb(0.392151%, 0.392151%, 0.392151%)" fill-opacity="1" d="M 51.542969 34.710938 L 58.910156 34.710938 L 58.910156 32.929688 L 53.3125 32.929688 L 53.3125 28.753906 L 58.910156 28.753906 L 58.910156 26.980469 L 53.3125 26.980469 L 53.3125 22.804688 L 58.910156 22.804688 L 58.910156 21.03125 L 51.542969 21.03125 Z M 51.542969 34.710938 "/>
<path fill-rule="nonzero" fill="rgb(0.392151%, 0.392151%, 0.392151%)" fill-opacity="1" d="M 62.15625 22.804688 L 65.34375 22.804688 L 65.34375 34.707031 L 67.121094 34.707031 L 67.121094 22.804688 L 70.308594 22.804688 L 70.308594 21.035156 L 62.15625 21.035156 Z M 62.15625 22.804688 "/>
<path fill-rule="nonzero" fill="rgb(0.392151%, 0.392151%, 0.392151%)" fill-opacity="1" d="M 76.582031 28.101562 L 77.742188 24.898438 L 78.914062 28.101562 Z M 77.265625 21.03125 L 72.289062 34.710938 L 74.179688 34.710938 L 75.933594 29.871094 L 79.558594 29.871094 L 81.316406 34.710938 L 83.199219 34.710938 L 78.222656 21.03125 Z M 77.265625 21.03125 "/>
<path fill-rule="nonzero" fill="rgb(0.392151%, 0.392151%, 0.392151%)" fill-opacity="1" d="M 93.914062 30.792969 L 88.273438 21.035156 L 86.65625 21.035156 L 86.65625 34.710938 L 88.425781 34.710938 L 88.425781 24.828125 L 94.144531 34.710938 L 95.691406 34.710938 L 95.691406 21.035156 L 93.914062 21.035156 Z M 93.914062 30.792969 "/>
<path fill-rule="nonzero" fill="rgb(0.392151%, 0.392151%, 0.392151%)" fill-opacity="1" d="M 110.480469 31.546875 C 109.464844 32.566406 108.234375 33.078125 106.792969 33.078125 C 105.355469 33.078125 104.128906 32.566406 103.109375 31.546875 C 102.089844 30.527344 101.578125 29.296875 101.578125 27.855469 C 101.578125 26.414062 102.089844 25.183594 103.105469 24.164062 C 104.121094 23.148438 105.351562 22.640625 106.792969 22.640625 C 108.234375 22.640625 109.464844 23.148438 110.480469 24.164062 C 111.5 25.183594 112.007812 26.414062 112.007812 27.855469 C 112.007812 29.296875 111.5 30.527344 110.480469 31.546875 M 106.792969 20.855469 C 104.859375 20.855469 103.210938 21.539062 101.84375 22.90625 C 100.476562 24.273438 99.792969 25.921875 99.792969 27.855469 C 99.792969 29.785156 100.476562 31.4375 101.84375 32.804688 C 103.210938 34.171875 104.859375 34.855469 106.792969 34.855469 C 108.726562 34.855469 110.375 34.171875 111.742188 32.804688 C 113.109375 31.4375 113.792969 29.785156 113.792969 27.855469 C 113.792969 25.921875 113.109375 24.273438 111.742188 22.90625 C 110.375 21.539062 108.726562 20.855469 106.792969 20.855469 "/>
<path fill-rule="nonzero" fill="rgb(0.392151%, 0.392151%, 0.392151%)" fill-opacity="1" d="M 122.109375 30.835938 L 118.542969 21.035156 L 116.664062 21.035156 L 121.628906 34.710938 L 122.585938 34.710938 L 127.570312 21.035156 L 125.679688 21.035156 Z M 122.109375 30.835938 "/>
<path fill-rule="nonzero" fill="rgb(0.392151%, 0.392151%, 0.392151%)" fill-opacity="1" d="M 133.996094 28.101562 L 135.15625 24.898438 L 136.328125 28.101562 Z M 135.636719 21.03125 L 134.679688 21.03125 L 129.703125 34.710938 L 131.59375 34.710938 L 133.347656 29.871094 L 136.96875 29.871094 L 138.730469 34.710938 L 140.613281 34.710938 Z M 135.636719 21.03125 "/>
<path fill-rule="nonzero" fill="rgb(0.392151%, 0.392151%, 0.392151%)" fill-opacity="1" d="M 14.773438 16.210938 L 14.773438 26.753906 L 16.585938 25.003906 L 19.515625 22.183594 L 17.382812 19.5 Z M 14.773438 16.210938 "/>
<path fill-rule="nonzero" fill="rgb(0.392151%, 0.392151%, 0.392151%)" fill-opacity="1" d="M 14.773438 15.742188 L 17.382812 19.03125 L 19.515625 21.710938 L 18.792969 9.285156 L 14.773438 10.140625 Z M 14.773438 15.742188 "/>
<path fill-rule="nonzero" fill="rgb(0.392151%, 0.392151%, 0.392151%)" fill-opacity="1" d="M 11.128906 9.847656 L 5.578125 14.515625 L 6.105469 14.816406 L 11.128906 17.691406 L 13.832031 19.238281 L 14.382812 19.550781 L 14.382812 7.113281 Z M 11.128906 9.847656 "/>
<path fill-rule="nonzero" fill="rgb(0.392151%, 0.392151%, 0.392151%)" fill-opacity="1" d="M 11.128906 23 L 5.070312 27.585938 L 4.476562 28.03125 L 4.980469 28.589844 L 11.128906 35.40625 L 11.902344 36.261719 L 12.449219 36.871094 L 12.449219 34.074219 L 13.832031 35.199219 L 14.382812 35.648438 L 14.382812 20.542969 L 13.832031 20.957031 Z M 11.128906 23 "/>
<path fill-rule="nonzero" fill="rgb(0.392151%, 0.392151%, 0.392151%)" fill-opacity="1" d="M 11.773438 59.125 L 11 59.65625 L 2.027344 65.847656 L 1.199219 66.417969 L 12.320312 66.417969 L 12.320312 58.746094 Z M 11.773438 59.125 "/>
<path fill-rule="nonzero" fill="rgb(0.392151%, 0.392151%, 0.392151%)" fill-opacity="1" d="M 14.859375 9.769531 L 18.878906 8.914062 L 11.058594 0.871094 L 11.058594 9.410156 L 14.859375 6.210938 Z M 14.859375 9.769531 "/>
<path fill-rule="nonzero" fill="rgb(0.392151%, 0.392151%, 0.392151%)" fill-opacity="1" d="M 21.15625 41.507812 L 19.949219 40.53125 L 15.324219 36.769531 L 14.777344 36.324219 L 14.226562 35.875 L 12.84375 34.75 L 12.84375 45.257812 L 13.394531 45.089844 L 13.496094 45.058594 L 14.226562 44.835938 L 14.777344 44.667969 L 15.324219 44.5 L 21.222656 42.695312 L 21.582031 42.585938 L 22.230469 42.386719 Z M 21.15625 41.507812 "/>
<path fill-rule="nonzero" fill="rgb(0.392151%, 0.392151%, 0.392151%)" fill-opacity="1" d="M 20.5 39.722656 L 19.511719 22.679688 L 16.585938 25.5 L 14.773438 27.25 L 14.773438 34.429688 L 15.234375 34.855469 Z M 20.5 39.722656 "/>
<path fill-rule="nonzero" fill="rgb(0.392151%, 0.392151%, 0.392151%)" fill-opacity="1" d="M 12.449219 37.546875 L 11.902344 36.9375 L 11.128906 36.082031 L 4.980469 29.265625 L 4.476562 28.707031 L 2.804688 47.695312 L 3.394531 47.289062 L 11.902344 41.402344 L 12.449219 41.023438 Z M 12.449219 37.546875 "/>
<path fill-rule="nonzero" fill="rgb(0.392151%, 0.392151%, 0.392151%)" fill-opacity="1" d="M 22.25 51.757812 L 21.679688 51.414062 L 15.324219 47.570312 L 14.777344 47.238281 L 14.226562 46.90625 L 13.394531 46.402344 L 13.039062 46.191406 L 12.84375 46.070312 L 12.84375 59.425781 L 13.394531 59.023438 L 14.226562 58.414062 L 14.777344 58.011719 L 15.324219 57.605469 L 20.75 53.625 L 21.765625 52.882812 L 22.296875 52.492188 L 22.824219 52.105469 Z M 22.25 51.757812 "/>
<path fill-rule="nonzero" fill="rgb(0.392151%, 0.392151%, 0.392151%)" fill-opacity="1" d="M 20.445312 39.507812 L 19.820312 39.949219 L 20.5 40.5 Z M 20.445312 39.507812 "/>
<path fill-rule="nonzero" fill="rgb(0.392151%, 0.392151%, 0.392151%)" fill-opacity="1" d="M 12.449219 55.445312 L 11.902344 55.078125 L 11.128906 54.558594 L 3.328125 49.308594 L 2.804688 48.957031 L 1.328125 65.75 L 2.15625 65.179688 L 11.128906 58.988281 L 11.902344 58.457031 L 12.449219 58.078125 Z M 12.449219 55.445312 "/>
<path fill-rule="nonzero" fill="rgb(0.392151%, 0.392151%, 0.392151%)" fill-opacity="1" d="M 22.644531 65.847656 L 22.445312 65.742188 L 15.59375 62.035156 L 15.324219 61.886719 L 14.773438 61.589844 L 14.226562 61.292969 L 13.394531 60.84375 L 12.84375 60.542969 L 12.84375 66.417969 L 23.699219 66.417969 Z M 22.644531 65.847656 "/>
<path fill-rule="nonzero" fill="rgb(0.392151%, 0.392151%, 0.392151%)" fill-opacity="1" d="M 14.382812 20.089844 L 13.832031 19.777344 L 11.128906 18.226562 L 6.105469 15.351562 L 5.582031 15.050781 L 4.476562 27.578125 L 5.070312 27.132812 L 11.128906 22.546875 L 13.832031 20.503906 Z M 14.382812 20.089844 "/>
<path fill-rule="nonzero" fill="rgb(0.392151%, 0.392151%, 0.392151%)" fill-opacity="1" d="M 22.121094 42.710938 L 21.472656 42.910156 L 21.113281 43.019531 L 15.214844 44.824219 L 14.113281 45.160156 L 13.382812 45.382812 L 13.285156 45.414062 L 12.734375 45.582031 L 12.929688 45.703125 L 13.285156 45.917969 L 14.113281 46.417969 L 15.214844 47.082031 L 21.570312 50.925781 L 22.136719 51.269531 L 22.714844 51.617188 Z M 22.121094 42.710938 "/>
<path fill-rule="nonzero" fill="rgb(0.392151%, 0.392151%, 0.392151%)" fill-opacity="1" d="M 20.5 39.566406 L 15.234375 34.699219 L 14.773438 34.273438 L 14.773438 35.855469 L 19.878906 40.003906 Z M 20.5 39.566406 "/>
<path fill-rule="nonzero" fill="rgb(0.392151%, 0.392151%, 0.392151%)" fill-opacity="1" d="M 12.449219 47.9375 L 12.449219 41.605469 L 11.902344 41.984375 L 3.394531 47.871094 L 2.804688 48.277344 L 3.328125 48.628906 L 11.128906 53.878906 L 11.902344 54.398438 L 12.449219 54.769531 Z M 12.449219 47.9375 "/>
<path fill-rule="nonzero" fill="rgb(0.392151%, 0.392151%, 0.392151%)" fill-opacity="1" d="M 22.1875 53.101562 L 21.652344 53.492188 L 20.640625 54.234375 L 15.214844 58.214844 L 14.664062 58.617188 L 14.113281 59.023438 L 13.285156 59.632812 L 12.730469 60.035156 L 13.285156 60.335938 L 14.113281 60.785156 L 15.214844 61.378906 L 15.484375 61.523438 L 22.335938 65.230469 L 22.53125 65.339844 L 23.589844 65.910156 L 22.714844 52.714844 Z M 22.1875 53.101562 "/>
</svg>
