<svg xmlns="http://www.w3.org/2000/svg" width="191.204" height="90.562" viewBox="0 0 143.403 67.921"><path fill="#FFF" d="M34.723 48.457h2.855v-.691H35.41v-1.621h2.168v-.684H35.41V43.84h2.168v-.688h-2.855Zm10.273-5.305h-.789l-1 1.727-.996-1.727h-.785l1.386 2.41-1.667 2.895h.789l1.273-2.21 1.277 2.21h.79l-1.672-2.895Zm6.027 2.59c-.218.219-.48.328-.785.328h-.625v-2.226h.625c.305 0 .567.11.785.324.22.215.325.48.325.785 0 .309-.106.574-.325.79m-.593-2.59h-1.504v5.304h.687v-1.7h.625c.496 0 .922-.175 1.274-.527a1.74 1.74 0 0 0 .527-1.277c0-.496-.176-.918-.527-1.273a1.846 1.846 0 0 0-1.082-.528m5.277 5.305h2.855v-.691h-2.167v-1.621h2.167v-.684h-2.167V43.84h2.167v-.688h-2.855Zm7.441-2.387v-2.226h.625c.305 0 .567.105.786.324.214.215.324.477.324.785 0 .309-.11.574-.324.79-.22.218-.48.327-.786.327Zm1.899.16a1.74 1.74 0 0 0 .527-1.277c0-.496-.176-.918-.527-1.273a1.846 1.846 0 0 0-1.082-.528H62.46v5.305h.687v-1.7h.625l1.063 1.7h.828l-1.176-1.812c.13-.032.317-.168.559-.415m4.001-2.39h1.234v4.617h.692V43.84h1.234v-.688h-3.16Zm8.246 1.21a1.903 1.903 0 0 1-.504-.323.552.552 0 0 1-.16-.395.54.54 0 0 1 .16-.395.555.555 0 0 1 .398-.16c.149 0 .282.051.391.16.059.06.129.192.203.395l.625-.242c-.094-.293-.207-.504-.347-.633a1.186 1.186 0 0 0-.871-.363 1.2 1.2 0 0 0-.883.363 1.201 1.201 0 0 0-.364.875c0 .344.118.633.352.863.234.235.535.414.914.54.262.109.484.253.664.433a.932.932 0 0 1 .285.687c0 .27-.094.5-.285.688a.93.93 0 0 1-.683.285.932.932 0 0 1-.688-.285c-.164-.164-.266-.438-.309-.832l-.668.242c.07.457.235.813.493 1.07.32.329.71.489 1.171.489.454 0 .844-.16 1.168-.485a1.61 1.61 0 0 0 .485-1.172c0-.457-.164-.847-.488-1.167a2.62 2.62 0 0 0-1.059-.637m5.242 1.73h2.211v-.683h-2.21Zm8.738-2.991c.512 0 1.004.21 1.477.632l.516-.469c-.63-.574-1.293-.86-1.993-.86-.75 0-1.386.266-1.914.798a2.604 2.604 0 0 0-.793 1.914c0 .75.262 1.386.793 1.914a2.592 2.592 0 0 0 1.914.793c.7 0 1.364-.285 1.993-.86l-.516-.46c-.473.421-.965.632-1.477.632a1.95 1.95 0 0 1-1.421-.59 1.95 1.95 0 0 1-.594-1.43c0-.554.199-1.03.594-1.425a1.95 1.95 0 0 1 1.421-.59m9.864 3.441a1.95 1.95 0 0 1-1.43.594 1.946 1.946 0 0 1-1.426-.594 1.943 1.943 0 0 1-.594-1.433c0-.559.196-1.035.59-1.43a1.95 1.95 0 0 1 1.43-.59 1.95 1.95 0 0 1 1.43.59c.394.395.593.871.593 1.43 0 .558-.199 1.039-.593 1.433m-1.43-4.148c-.75 0-1.387.27-1.918.797a2.617 2.617 0 0 0-.797 1.918c0 .75.266 1.39.797 1.922a2.622 2.622 0 0 0 1.918.793c.75 0 1.39-.266 1.918-.793a2.62 2.62 0 0 0 .797-1.922c0-.746-.266-1.387-.797-1.918a2.62 2.62 0 0 0-1.918-.797m9.43 3.856-2.188-3.782h-.625v5.301h.684v-3.832l2.219 3.832h.597v-5.3h-.687Zm6.105-1.888a1.903 1.903 0 0 1-.504-.323.552.552 0 0 1-.16-.395.54.54 0 0 1 .16-.395.555.555 0 0 1 .399-.16c.148 0 .281.051.39.16.059.06.13.192.203.395l.625-.242c-.093-.293-.207-.504-.347-.633a1.186 1.186 0 0 0-.871-.363 1.2 1.2 0 0 0-.883.363 1.201 1.201 0 0 0-.363.875c0 .344.117.633.351.863.235.235.535.414.91.54.266.109.489.253.668.433a.932.932 0 0 1 .285.687c0 .27-.093.5-.285.688a.923.923 0 0 1-.683.285.932.932 0 0 1-.688-.285c-.164-.164-.265-.438-.308-.832l-.668.242c.07.457.234.813.492 1.07.32.329.71.489 1.172.489.453 0 .843-.16 1.168-.485a1.61 1.61 0 0 0 .484-1.172c0-.457-.164-.847-.488-1.167-.29-.29-.64-.5-1.059-.637m25.16.633a2.62 2.62 0 0 0-1.054-.637 1.704 1.704 0 0 1-.504-.328.534.534 0 0 1-.164-.395c0-.152.054-.285.164-.39a.524.524 0 0 1 .394-.16.54.54 0 0 1 .39.156c.063.062.13.195.208.398l.621-.246c-.094-.289-.207-.5-.344-.633a1.213 1.213 0 0 0-.875-.36c-.343 0-.636.122-.879.364a1.192 1.192 0 0 0-.363.871c0 .348.113.637.348.867.234.235.539.414.914.54a2.1 2.1 0 0 1 .668.433.944.944 0 0 1 .281.688c0 .27-.094.5-.281.687a.938.938 0 0 1-.688.285.932.932 0 0 1-.687-.285c-.164-.164-.266-.441-.309-.832l-.664.242c.067.457.23.813.488 1.07a1.6 1.6 0 0 0 1.172.489c.453 0 .844-.16 1.168-.485.324-.324.485-.714.485-1.171 0-.457-.16-.848-.489-1.168m-19.961 2.773h2.856v-.691h-2.172v-1.621h2.172v-.684h-2.172V43.84h2.172v-.688h-2.856Zm6.821 0h.683v-5.305h-.683Zm5.422-5.305h-.688v5.305h2.582v-.691h-1.894Zm7.926-4.707H34.722v.692h105.886ZM40.773 28.7l-4.437-7.665h-1.613v13.676h1.77v-9.883l4.28 7.387 4.266-7.387v9.883h1.77V21.035H45.19Zm10.77 6.01h7.367v-1.78h-5.597v-4.176h5.597V26.98h-5.597v-4.175h5.597V21.03h-7.367Zm10.613-11.905h3.188v11.902h1.777V22.805h3.188v-1.77h-8.153Zm14.426 5.297 1.16-3.204 1.172 3.204Zm.684-7.07L72.289 34.71h1.89l1.755-4.84h3.625l1.757 4.84H83.2l-4.976-13.68Zm16.648 9.761-5.64-9.758h-1.618v13.676h1.77v-9.883l5.719 9.883h1.546V21.035h-1.777Zm16.566.754c-1.015 1.02-2.246 1.531-3.687 1.531-1.438 0-2.664-.512-3.684-1.531-1.02-1.02-1.53-2.25-1.53-3.692 0-1.44.51-2.671 1.526-3.69 1.016-1.017 2.247-1.524 3.688-1.524 1.441 0 2.672.507 3.687 1.523 1.02 1.02 1.528 2.25 1.528 3.691 0 1.442-.508 2.672-1.528 3.692m-3.687-10.692c-1.934 0-3.582.684-4.95 2.051-1.366 1.367-2.05 3.016-2.05 4.95 0 1.93.684 3.581 2.05 4.949 1.368 1.367 3.016 2.05 4.95 2.05 1.934 0 3.582-.683 4.95-2.05 1.366-1.367 2.05-3.02 2.05-4.95 0-1.933-.684-3.582-2.05-4.949-1.368-1.367-3.016-2.05-4.95-2.05m15.317 9.98-3.567-9.8h-1.879l4.965 13.675h.957l4.984-13.676h-1.89Zm11.886-2.734 1.16-3.204 1.172 3.204Zm1.64-7.07h-.956l-4.977 13.679h1.89l1.755-4.84h3.62l1.762 4.84h1.883ZM14.773 16.21v10.544l1.813-1.75 2.93-2.82-2.133-2.684Zm0-.468 2.61 3.29 2.133 2.679-.723-12.426-4.02.856Zm-3.644-5.894-5.55 4.668.526.3 5.024 2.875 2.703 1.547.55.313V7.113Zm0 13.152L5.07 27.586l-.593.445.503.559 6.149 6.816.773.856.547.61v-2.798l1.383 1.125.55.45V20.542l-.55.414Zm.644 36.125-.773.531-8.973 6.192-.828.57H12.32v-7.672Zm0 0"/><path fill="#FFF" d="m14.86 9.77 4.019-.856-7.82-8.043v8.54l3.8-3.2Zm6.296 31.738-1.207-.977-4.625-3.761-.547-.446-.55-.449-1.383-1.125v10.508l.55-.168.102-.031.73-.223.551-.168.547-.168 5.899-1.805.359-.11.648-.198Zm-.656-1.785-.988-17.043-2.926 2.82-1.813 1.75v7.18l.461.425Zm-8.05-2.176-.548-.61-.773-.855-6.149-6.816-.503-.559-1.672 18.988.59-.406 8.507-5.887.547-.379Zm9.8 14.211-.57-.344-6.356-3.844-.547-.332-.55-.332-.832-.504-.356-.21-.195-.122v13.356l.55-.403.833-.609.55-.402.547-.407 5.426-3.98 1.016-.742.53-.39.528-.388Zm0 0"/><path fill="#FFF" d="m20.445 39.508-.625.441.68.551ZM12.45 55.445l-.548-.367-.773-.52-7.8-5.25-.524-.351L1.328 65.75l.828-.57 8.973-6.192.773-.531.547-.379Zm10.195 10.403-.2-.106-6.851-3.707-.27-.148-.55-.297-.547-.297-.832-.45-.551-.3v5.875h10.855ZM14.383 20.09l-.551-.313-2.703-1.55-5.024-2.875-.523-.301-1.105 12.527.593-.445 6.059-4.586 2.703-2.043Zm7.738 22.62-.648.2-.36.11-5.898 1.804-1.102.336-.73.223-.098.031-.55.168.195.121.355.215.828.5 1.102.664 6.355 3.844.567.344.578.347Zm0 0"/><path fill="#FFF" d="M20.5 39.566 15.234 34.7l-.46-.426v1.582l5.105 4.149Zm-8.05 8.372v-6.333l-.548.38-8.507 5.886-.59.406.523.352 7.8 5.25.774.52.547.37Zm9.738 5.164-.536.39-1.011.742-5.426 3.98-.55.403-.552.406-.828.61-.555.402.555.3.828.45 1.102.594.27.144 6.85 3.707.196.11 1.059.57-.875-13.195Zm0 0"/></svg>